<!-- icon666.com - MILLIONS OF FREE VECTOR ICONS --><svg version="1.1" id="Layer_1" xmlns="http://www.w3.org/2000/svg" xmlns:xlink="http://www.w3.org/1999/xlink" x="0px" y="0px" viewBox="0 0 512 512" style="enable-background:new 0 0 512 512;" xml:space="preserve"><path style="" d="M362,451c-82.705,0-150-67.295-150-150s67.295-150,150-150s150,67.295,150,150S444.705,451,362,451z M362,181c-66.167,0-120,53.833-120,120s53.833,120,120,120s120-53.833,120-120S428.167,181,362,181z" fill="#FFBC33"></path><path style="fill: rgb(135, 208, 232);" d="M150,181c-3.838,0-7.676-1.465-10.605-4.395l-60-60c-5.859-5.859-5.859-15.352,0-21.211l30-30 C112.207,62.582,116.016,61,120,61h60c3.984,0,7.793,1.582,10.605,4.395l30,30c5.859,5.859,5.859,15.352,0,21.211l-60,60 C157.676,179.535,153.838,181,150,181z" fill="#2EE6C7"></path><path style="" d="M150,451C67.295,451,0,383.705,0,301s67.295-150,150-150s150,67.295,150,150S232.705,451,150,451z M150,181c-66.167,0-120,53.833-120,120s53.833,120,120,120s120-53.833,120-120S216.167,181,150,181z" fill="#FFDE33"></path></svg>