<svg width="390" height="48" viewBox="0 0 390 48" fill="none" xmlns="http://www.w3.org/2000/svg">
<g filter="url(#filter0_g_128_824)">
<path d="M0 21.204L4.45045 24.5588L8.39974 19.0681L14.3237 15.5692L19.2603 16.269L25.6779 12.77L27.1589 14.8694L30.6145 14.1696L32.0955 16.9687L34.0701 20.4677L36.5384 17.6687L40.4877 13.4915L46.4117 14.1696L48.88 12.0702H51.8419L54.3102 15.5692L57.2722 14.1696L58.2595 10.6844L63.6898 4.36861L68.1328 6.38855L72.5757 5.77212L74.5504 7.87148L78.4997 8.57145L80.968 11.3706L85.4109 7.87148L90.8412 9.97085L93.3095 14.1696L95.7778 12.7043L99.2334 14.1697L100.221 15.5693L101.702 16.9689H103.183L105.157 19.0683L106.145 16.9689L107.626 14.8695L109.107 16.9689L110.588 19.1054L111.575 22.5289L113.056 19.1054L115.955 17.6687L117.93 15.5693L118.917 14.8096L119.904 18.3685L122.929 15.5966L125.828 13.4061L126.878 15.5966L128.359 16.9689L130.828 16.2984L133.296 14.8695L135.271 14.1697L137.739 14.8096L139.22 17.6687L141.688 16.9689L143.663 21.8272L146.131 19.1054L148.6 20.4237L151.562 12.7043L152.549 13.4061L154.03 12.088L156.004 14.1696L158.473 12.0879L159.954 9.98268L162.422 11.3862L164.397 9.98269L166.371 10.6844L169.333 7.87738H171.802L174.237 9.28092L176.212 10.6844L177.693 9.28092L179.174 12.0879L180.688 10.6844L182.169 11.3862L183.156 13.4915L186.611 14.895L189.573 14.1696L191.548 14.895L192.535 16.2985L194.51 14.895L196.485 14.1696L199.447 16.2985L200.434 20.4237L203.89 25.1017H208H209.32L214.5 24.0177H218H220.18L222.649 21.2107L226.104 22.6142L226.849 19.7681L229.56 17.6687L231.041 16.2985H232.522L234.497 15.2281L235.484 12.7043L237.952 13.8246L240.914 10.6844L241.408 12.7043L242.889 14.1696L244.561 16.2691L245.357 19.7681H247.5L249.5 21.2107L251 22.8621L253.256 22.6142L258.686 24.0177L260.661 21.2107L262.635 19.7681L264.116 17.6687L266.585 17.7019L269.053 19.7681L271.521 18.4037L273.496 16.2691L274.977 14.1932H279.42L280.901 16.2691L283 15.866L286 14.8612L289 15.3636L291.268 14.1932L295.217 12.7043L297.192 15.1428L298.179 19.7681L300.154 21.8272L305.09 20.4237L307.559 22.8621L311.508 20.4237L314.47 16.2691L323.849 20.4237V16.2691L332 13.3541L338.5 11.3445L344.09 4L347.051 5.07036L348.532 9.28089L351.001 5.77212L354.95 5.07036L357.418 9.28089L361.861 12.7043L364.823 9.28089L368.279 7.17563L371.735 9.28089H375.684L377.165 14.1696H382.101L384.57 17.0002L390 16.2985V44H0V21.204Z" fill="#FFFDFB"/>
<path d="M0 21.204L4.45045 24.5588L8.39974 19.0681L14.3237 15.5692L19.2603 16.269L25.6779 12.77L27.1589 14.8694L30.6145 14.1696L32.0955 16.9687L34.0701 20.4677L36.5384 17.6687L40.4877 13.4915L46.4117 14.1696L48.88 12.0702H51.8419L54.3102 15.5692L57.2722 14.1696L58.2595 10.6844L63.6898 4.36861L68.1328 6.38855L72.5757 5.77212L74.5504 7.87148L78.4997 8.57145L80.968 11.3706L85.4109 7.87148L90.8412 9.97085L93.3095 14.1696L95.7778 12.7043L99.2334 14.1697L100.221 15.5693L101.702 16.9689H103.183L105.157 19.0683L106.145 16.9689L107.626 14.8695L109.107 16.9689L110.588 19.1054L111.575 22.5289L113.056 19.1054L115.955 17.6687L117.93 15.5693L118.917 14.8096L119.904 18.3685L122.929 15.5966L125.828 13.4061L126.878 15.5966L128.359 16.9689L130.828 16.2984L133.296 14.8695L135.271 14.1697L137.739 14.8096L139.22 17.6687L141.688 16.9689L143.663 21.8272L146.131 19.1054L148.6 20.4237L151.562 12.7043L152.549 13.4061L154.03 12.088L156.004 14.1696L158.473 12.0879L159.954 9.98268L162.422 11.3862L164.397 9.98269L166.371 10.6844L169.333 7.87738H171.802L174.237 9.28092L176.212 10.6844L177.693 9.28092L179.174 12.0879L180.688 10.6844L182.169 11.3862L183.156 13.4915L186.611 14.895L189.573 14.1696L191.548 14.895L192.535 16.2985L194.51 14.895L196.485 14.1696L199.447 16.2985L200.434 20.4237L203.89 25.1017H208H209.32L214.5 24.0177H218H220.18L222.649 21.2107L226.104 22.6142L226.849 19.7681L229.56 17.6687L231.041 16.2985H232.522L234.497 15.2281L235.484 12.7043L237.952 13.8246L240.914 10.6844L241.408 12.7043L242.889 14.1696L244.561 16.2691L245.357 19.7681H247.5L249.5 21.2107L251 22.8621L253.256 22.6142L258.686 24.0177L260.661 21.2107L262.635 19.7681L264.116 17.6687L266.585 17.7019L269.053 19.7681L271.521 18.4037L273.496 16.2691L274.977 14.1932H279.42L280.901 16.2691L283 15.866L286 14.8612L289 15.3636L291.268 14.1932L295.217 12.7043L297.192 15.1428L298.179 19.7681L300.154 21.8272L305.09 20.4237L307.559 22.8621L311.508 20.4237L314.47 16.2691L323.849 20.4237V16.2691L332 13.3541L338.5 11.3445L344.09 4L347.051 5.07036L348.532 9.28089L351.001 5.77212L354.95 5.07036L357.418 9.28089L361.861 12.7043L364.823 9.28089L368.279 7.17563L371.735 9.28089H375.684L377.165 14.1696H382.101L384.57 17.0002L390 16.2985V44H0V21.204Z" fill="#FFFDFB"/>
</g>
<defs>
<filter id="filter0_g_128_824" x="-4" y="0" width="398" height="48" filterUnits="userSpaceOnUse" color-interpolation-filters="sRGB">
<feFlood flood-opacity="0" result="BackgroundImageFix"/>
<feBlend mode="normal" in="SourceGraphic" in2="BackgroundImageFix" result="shape"/>
<feTurbulence type="fractalNoise" baseFrequency="0.25 0.25" numOctaves="3" seed="9525" />
<feDisplacementMap in="shape" scale="8" xChannelSelector="R" yChannelSelector="G" result="displacedImage" width="100%" height="100%" />
<feMerge result="effect1_texture_128_824">
<feMergeNode in="displacedImage"/>
</feMerge>
</filter>
</defs>
</svg>
